<svg width="668" height="673" viewBox="0 0 668 673" fill="none" xmlns="http://www.w3.org/2000/svg">
<path fill-rule="evenodd" clip-rule="evenodd" d="M220.731 201.737L536.629 5.07707L662.711 72.4208L329.747 260.525L220.731 201.737ZM537.787 2.29484C536.999 1.87395 536.047 1.90554 535.288 2.37767L218.414 199.645C216.784 200.66 216.859 203.057 218.549 203.968L328.566 263.296C329.322 263.704 330.235 263.695 330.982 263.273L664.979 74.5852C666.696 73.6153 666.666 71.1324 664.927 70.2034L537.787 2.29484ZM323.956 299.078V453.032C323.956 453.798 323.129 454.28 322.463 453.902L2.50727 272.737C2.19377 272.559 2 272.227 2 271.867V117.912C2 117.146 2.82609 116.664 3.49272 117.042L323.448 298.208C323.762 298.386 323.956 298.718 323.956 299.078ZM53.6061 346.976C53.6061 345.036 55.719 343.836 57.3855 344.828L181.512 418.769C182.269 419.22 182.733 420.036 182.733 420.917V668.731C182.733 670.671 180.62 671.872 178.954 670.879L54.8266 596.938C54.0698 596.487 53.6061 595.671 53.6061 594.79V346.976ZM56.6061 347.856V594.506L179.733 667.851V421.201L56.6061 347.856ZM460.53 218.524L581.338 146.963C582.005 146.568 582.848 147.048 582.848 147.823V530.597C582.848 530.98 582.629 531.329 582.284 531.496L461.477 590.135C460.812 590.457 460.04 589.973 460.04 589.235V219.385C460.04 219.031 460.226 218.704 460.53 218.524Z" fill="url(#paint0_linear)"/>
<path d="M536.629 5.07707L537.335 3.75398L536.571 3.34587L535.836 3.80367L536.629 5.07707ZM220.731 201.737L219.938 200.463L217.743 201.83L220.019 203.057L220.731 201.737ZM662.711 72.4208L663.449 73.7268L665.826 72.384L663.418 71.0978L662.711 72.4208ZM329.747 260.525L329.035 261.845L329.764 262.238L330.485 261.831L329.747 260.525ZM535.288 2.37767L536.081 3.65107L536.081 3.65106L535.288 2.37767ZM537.787 2.29484L538.494 0.971749L538.494 0.97174L537.787 2.29484ZM218.414 199.645L219.207 200.919L219.207 200.919L218.414 199.645ZM218.549 203.968L217.837 205.288L217.837 205.288L218.549 203.968ZM328.566 263.296L327.854 264.617L327.854 264.617L328.566 263.296ZM330.982 263.273L330.245 261.967L330.245 261.967L330.982 263.273ZM664.979 74.5852L664.241 73.2792L664.241 73.2792L664.979 74.5852ZM664.927 70.2034L665.634 68.8803L665.634 68.8803L664.927 70.2034ZM322.463 453.902L323.202 452.597L323.202 452.597L322.463 453.902ZM2.50727 272.737L3.24635 271.432L3.24629 271.432L2.50727 272.737ZM3.49272 117.042L2.75364 118.347L2.75364 118.347L3.49272 117.042ZM323.448 298.208L324.187 296.903L324.187 296.903L323.448 298.208ZM57.3855 344.828L58.1531 343.54L58.1531 343.539L57.3855 344.828ZM181.512 418.769L182.28 417.48L182.28 417.48L181.512 418.769ZM178.954 670.879L178.186 672.168L178.186 672.168L178.954 670.879ZM54.8266 596.938L54.059 598.226L54.059 598.226L54.8266 596.938ZM56.6061 594.506H55.1061V595.358L55.8384 595.794L56.6061 594.506ZM56.6061 347.856L57.3737 346.567L55.1061 345.216V347.856H56.6061ZM179.733 667.851L178.965 669.14L181.233 670.491V667.851H179.733ZM179.733 421.201H181.233V420.349L180.501 419.912L179.733 421.201ZM581.338 146.963L582.102 148.253L582.103 148.253L581.338 146.963ZM460.53 218.524L459.766 217.234L459.766 217.234L460.53 218.524ZM582.284 531.496L582.939 532.846L582.939 532.846L582.284 531.496ZM461.477 590.135L460.822 588.785L460.821 588.785L461.477 590.135ZM535.836 3.80367L219.938 200.463L221.524 203.01L537.421 6.35047L535.836 3.80367ZM663.418 71.0978L537.335 3.75398L535.922 6.40016L662.004 73.7439L663.418 71.0978ZM330.485 261.831L663.449 73.7268L661.973 71.1148L329.009 259.219L330.485 261.831ZM220.019 203.057L329.035 261.845L330.459 259.205L221.443 200.416L220.019 203.057ZM536.081 3.65106C536.384 3.46223 536.765 3.44957 537.081 3.61795L538.494 0.97174C537.233 0.298333 535.709 0.348855 534.496 1.10428L536.081 3.65106ZM219.207 200.919L536.081 3.65107L534.496 1.10427L217.621 198.372L219.207 200.919ZM219.261 202.648C218.585 202.283 218.555 201.325 219.207 200.919L217.621 198.372C215.013 199.995 215.133 203.83 217.837 205.288L219.261 202.648ZM329.278 261.976L219.261 202.648L217.837 205.288L327.854 264.617L329.278 261.976ZM330.245 261.967C329.946 262.136 329.581 262.139 329.278 261.976L327.854 264.617C329.064 265.269 330.524 265.255 331.72 264.579L330.245 261.967ZM664.241 73.2792L330.245 261.967L331.72 264.579L665.717 75.8912L664.241 73.2792ZM664.22 71.5265C664.916 71.8981 664.928 72.8913 664.241 73.2792L665.717 75.8912C668.464 74.3393 668.417 70.3667 665.634 68.8803L664.22 71.5265ZM537.081 3.61794L664.22 71.5265L665.634 68.8803L538.494 0.971749L537.081 3.61794ZM325.456 453.032V299.078H322.456V453.032H325.456ZM321.724 455.208C323.39 456.151 325.456 454.947 325.456 453.032H322.456C322.456 452.649 322.869 452.408 323.202 452.597L321.724 455.208ZM1.76819 274.042L321.724 455.208L323.202 452.597L3.24635 271.432L1.76819 274.042ZM0.5 271.867C0.5 272.767 0.984398 273.598 1.76825 274.042L3.24629 271.432C3.40315 271.52 3.5 271.687 3.5 271.867H0.5ZM0.5 117.912V271.867H3.5V117.912H0.5ZM4.2318 115.736C2.5652 114.793 0.5 115.997 0.5 117.912H3.5C3.5 118.295 3.08698 118.536 2.75364 118.347L4.2318 115.736ZM324.187 296.903L4.2318 115.736L2.75364 118.347L322.709 299.513L324.187 296.903ZM325.456 299.078C325.456 298.178 324.971 297.347 324.187 296.903L322.709 299.513C322.552 299.425 322.456 299.258 322.456 299.078H325.456ZM58.1531 343.539C55.4868 341.951 52.1061 343.873 52.1061 346.976H55.1061C55.1061 346.2 55.9513 345.72 56.6178 346.117L58.1531 343.539ZM182.28 417.48L58.1531 343.54L56.6178 346.117L180.745 420.058L182.28 417.48ZM184.233 420.917C184.233 419.507 183.491 418.202 182.28 417.48L180.745 420.058C181.047 420.238 181.233 420.564 181.233 420.917H184.233ZM184.233 668.731V420.917H181.233V668.731H184.233ZM178.186 672.168C180.852 673.756 184.233 671.835 184.233 668.731H181.233C181.233 669.507 180.388 669.988 179.721 669.59L178.186 672.168ZM54.059 598.226L178.186 672.168L179.721 669.59L55.5943 595.649L54.059 598.226ZM52.1061 594.79C52.1061 596.199 52.848 597.505 54.059 598.226L55.5943 595.649C55.2916 595.469 55.1061 595.142 55.1061 594.79H52.1061ZM52.1061 346.976V594.79H55.1061V346.976H52.1061ZM58.1061 594.506V347.856H55.1061V594.506H58.1061ZM180.501 666.563L57.3737 593.217L55.8384 595.794L178.965 669.14L180.501 666.563ZM178.233 421.201V667.851H181.233V421.201H178.233ZM55.8384 349.145L178.965 422.49L180.501 419.912L57.3737 346.567L55.8384 349.145ZM580.574 145.672L459.766 217.234L461.295 219.815L582.102 148.253L580.574 145.672ZM584.348 147.823C584.348 145.886 582.24 144.685 580.574 145.672L582.103 148.253C581.769 148.451 581.348 148.211 581.348 147.823H584.348ZM584.348 530.597V147.823H581.348V530.597H584.348ZM582.939 532.846C583.801 532.428 584.348 531.554 584.348 530.597H581.348C581.348 530.405 581.457 530.23 581.629 530.147L582.939 532.846ZM462.131 591.484L582.939 532.846L581.629 530.147L460.822 588.785L462.131 591.484ZM458.54 589.235C458.54 591.081 460.471 592.29 462.132 591.484L460.821 588.785C461.154 588.624 461.54 588.866 461.54 589.235H458.54ZM458.54 219.385V589.235H461.54V219.385H458.54ZM459.766 217.234C459.006 217.684 458.54 218.501 458.54 219.385H461.54C461.54 219.561 461.447 219.725 461.295 219.815L459.766 217.234Z" fill="url(#paint1_linear)"/>
<defs>
<linearGradient id="paint0_linear" x1="334.125" y1="2" x2="334.125" y2="671.235" gradientUnits="userSpaceOnUse">
<stop stop-color="#45BCFF"/>
<stop offset="1" stop-color="#312DFF" stop-opacity="0.72"/>
</linearGradient>
<linearGradient id="paint1_linear" x1="334.125" y1="2" x2="334.125" y2="671.235" gradientUnits="userSpaceOnUse">
<stop stop-color="#45BCFF"/>
<stop offset="1" stop-color="#312DFF" stop-opacity="0.72"/>
</linearGradient>
</defs>
</svg>
