<svg width="518" height="522" viewBox="0 0 518 522" fill="none" xmlns="http://www.w3.org/2000/svg">
<path fill-rule="evenodd" clip-rule="evenodd" d="M171.977 156.883L415.825 5.07707L512.698 56.8195L255.678 202.02L171.977 156.883ZM416.984 2.29485C416.196 1.87397 415.243 1.90552 414.485 2.37766L169.66 154.792C168.03 155.806 168.105 158.203 169.794 159.114L254.497 204.791C255.253 205.199 256.166 205.19 256.914 204.768L514.966 58.9839C516.683 58.0139 516.654 55.5311 514.914 54.602L416.984 2.29485ZM251.199 232.38V351.023C251.199 351.79 250.373 352.271 249.707 351.894L2.50727 211.924C2.19378 211.747 2 211.414 2 211.054V92.4096C2 91.6435 2.82609 91.1619 3.49272 91.5394L250.692 231.51C251.006 231.687 251.199 232.019 251.199 232.38ZM41.6051 269.719C41.6051 267.78 43.7181 266.579 45.3845 267.572L141.009 324.534C141.766 324.985 142.23 325.801 142.23 326.682V517.969C142.23 519.908 140.117 521.109 138.45 520.116L42.8256 463.154C42.0688 462.703 41.6051 461.887 41.6051 461.006V269.719ZM44.6051 270.599V460.722L139.23 517.089V326.966L44.6051 270.599ZM357.021 169.832L450.077 114.71C450.743 114.315 451.586 114.796 451.586 115.57V411.306C451.586 411.689 451.368 412.038 451.023 412.206L357.968 457.373C357.304 457.696 356.531 457.212 356.531 456.474V170.693C356.531 170.339 356.717 170.012 357.021 169.832Z" fill="url(#paint0_linear)"/>
<path d="M415.825 5.07707L416.532 3.75398L415.768 3.34587L415.032 3.80367L415.825 5.07707ZM171.977 156.883L171.184 155.61L168.989 156.976L171.265 158.203L171.977 156.883ZM512.698 56.8195L513.436 58.1255L515.813 56.7826L513.405 55.4964L512.698 56.8195ZM255.678 202.02L254.966 203.34L255.695 203.733L256.416 203.326L255.678 202.02ZM414.485 2.37766L415.278 3.65106V3.65106L414.485 2.37766ZM416.984 2.29485L417.691 0.971753V0.971746L416.984 2.29485ZM169.66 154.792L170.453 156.065L169.66 154.792ZM169.794 159.114L169.082 160.435H169.082L169.794 159.114ZM254.497 204.791L253.785 206.112L254.497 204.791ZM256.914 204.768L257.651 206.074L256.914 204.768ZM514.966 58.9839L514.228 57.6779V57.6779L514.966 58.9839ZM514.914 54.602L515.621 53.2789V53.2789L514.914 54.602ZM249.707 351.894L248.968 353.199H248.968L249.707 351.894ZM2.50727 211.924L3.24635 210.619H3.24634L2.50727 211.924ZM3.49272 91.5394L2.75364 92.8446L2.75364 92.8447L3.49272 91.5394ZM250.692 231.51L249.953 232.815L250.692 231.51ZM45.3845 267.572L46.1521 266.283H46.1521L45.3845 267.572ZM141.009 324.534L141.777 323.245H141.777L141.009 324.534ZM138.45 520.116L137.682 521.405V521.405L138.45 520.116ZM42.8256 463.154L43.5933 461.865H43.5933L42.8256 463.154ZM44.6051 460.722H43.1051V461.574L43.8374 462.01L44.6051 460.722ZM44.6051 270.599L45.3727 269.311L43.1051 267.96V270.599H44.6051ZM139.23 517.089L138.462 518.377L140.73 519.728V517.089H139.23ZM139.23 326.966H140.73V326.113L139.997 325.677L139.23 326.966ZM450.077 114.71L450.841 116.001H450.841L450.077 114.71ZM357.021 169.832L356.257 168.542L356.257 168.542L357.021 169.832ZM451.023 412.206L451.678 413.555L451.678 413.555L451.023 412.206ZM357.968 457.373L358.623 458.723H358.623L357.968 457.373ZM415.032 3.80367L171.184 155.61L172.77 158.156L416.618 6.35047L415.032 3.80367ZM513.405 55.4964L416.532 3.75398L415.118 6.40016L511.992 58.1426L513.405 55.4964ZM256.416 203.326L513.436 58.1255L511.96 55.5135L254.941 200.714L256.416 203.326ZM171.265 158.203L254.966 203.34L256.39 200.7L172.689 155.563L171.265 158.203ZM415.278 3.65106C415.581 3.46222 415.962 3.44958 416.277 3.61795L417.691 0.971746C416.43 0.298361 414.906 0.348822 413.692 1.10427L415.278 3.65106ZM170.453 156.065L415.278 3.65106L413.692 1.10426L168.867 153.518L170.453 156.065ZM170.506 157.794C169.83 157.43 169.801 156.471 170.453 156.065L168.867 153.518C166.259 155.142 166.379 158.977 169.082 160.435L170.506 157.794ZM255.209 203.471L170.506 157.794L169.082 160.435L253.785 206.112L255.209 203.471ZM256.176 203.462C255.877 203.631 255.512 203.634 255.209 203.471L253.785 206.112C254.995 206.764 256.455 206.75 257.651 206.074L256.176 203.462ZM514.228 57.6779L256.176 203.462L257.651 206.074L515.704 60.2899L514.228 57.6779ZM514.208 55.9251C514.903 56.2967 514.915 57.2899 514.228 57.6779L515.704 60.2899C518.451 58.738 518.404 54.7654 515.621 53.2789L514.208 55.9251ZM416.277 3.61794L514.208 55.9251L515.621 53.2789L417.691 0.971753L416.277 3.61794ZM252.699 351.023V232.38H249.699V351.023H252.699ZM248.968 353.199C250.634 354.143 252.699 352.939 252.699 351.023H249.699C249.699 350.64 250.112 350.4 250.446 350.588L248.968 353.199ZM1.7682 213.23L248.968 353.199L250.446 350.588L3.24635 210.619L1.7682 213.23ZM0.5 211.054C0.5 211.955 0.984443 212.786 1.76821 213.23L3.24634 210.619C3.40311 210.708 3.5 210.874 3.5 211.054H0.5ZM0.5 92.4096V211.054H3.5V92.4096H0.5ZM4.2318 90.2341C2.56522 89.2904 0.5 90.4944 0.5 92.4096H3.5C3.5 92.7926 3.08696 93.0334 2.75364 92.8446L4.2318 90.2341ZM251.431 230.204L4.2318 90.2341L2.75364 92.8447L249.953 232.815L251.431 230.204ZM252.699 232.38C252.699 231.479 252.215 230.648 251.431 230.204L249.953 232.815C249.796 232.726 249.699 232.56 249.699 232.38H252.699ZM46.1521 266.283C43.4859 264.695 40.1051 266.616 40.1051 269.719H43.1051C43.1051 268.944 43.9503 268.463 44.6168 268.86L46.1521 266.283ZM141.777 323.245L46.1521 266.283L44.6168 268.86L140.241 325.823L141.777 323.245ZM143.73 326.682C143.73 325.272 142.988 323.967 141.777 323.245L140.241 325.823C140.544 326.003 140.73 326.329 140.73 326.682H143.73ZM143.73 517.969V326.682H140.73V517.969H143.73ZM137.682 521.405C140.349 522.993 143.73 521.072 143.73 517.969H140.73C140.73 518.744 139.884 519.225 139.218 518.828L137.682 521.405ZM42.058 464.442L137.682 521.405L139.218 518.828L43.5933 461.865L42.058 464.442ZM40.1051 461.006C40.1051 462.415 40.847 463.721 42.058 464.442L43.5933 461.865C43.2905 461.685 43.1051 461.358 43.1051 461.006H40.1051ZM40.1051 269.719V461.006H43.1051V269.719H40.1051ZM46.1051 460.722V270.599H43.1051V460.722H46.1051ZM139.997 515.8L45.3727 459.433L43.8374 462.01L138.462 518.377L139.997 515.8ZM137.73 326.966V517.089H140.73V326.966H137.73ZM43.8374 271.888L138.462 328.255L139.997 325.677L45.3727 269.311L43.8374 271.888ZM449.312 113.42L356.257 168.542L357.786 171.123L450.841 116.001L449.312 113.42ZM453.086 115.57C453.086 113.634 450.979 112.432 449.312 113.42L450.841 116.001C450.508 116.198 450.086 115.958 450.086 115.57H453.086ZM453.086 411.306V115.57H450.086V411.306H453.086ZM451.678 413.555C452.539 413.137 453.086 412.264 453.086 411.306H450.086C450.086 411.114 450.196 410.94 450.368 410.856L451.678 413.555ZM358.623 458.723L451.678 413.555L450.368 410.856L357.313 456.024L358.623 458.723ZM355.031 456.474C355.031 458.319 356.962 459.529 358.623 458.723L357.313 456.024C357.645 455.863 358.031 456.105 358.031 456.474H355.031ZM355.031 170.693V456.474H358.031V170.693H355.031ZM356.257 168.542C355.497 168.992 355.031 169.809 355.031 170.693H358.031C358.031 170.869 357.938 171.033 357.786 171.123L356.257 168.542Z" fill="url(#paint1_linear)"/>
<defs>
<linearGradient id="paint0_linear" x1="259.118" y1="2" x2="259.118" y2="520.472" gradientUnits="userSpaceOnUse">
<stop stop-color="#45BCFF"/>
<stop offset="1" stop-color="#312DFF" stop-opacity="0.72"/>
</linearGradient>
<linearGradient id="paint1_linear" x1="259.118" y1="2" x2="259.118" y2="520.472" gradientUnits="userSpaceOnUse">
<stop stop-color="#45BCFF"/>
<stop offset="1" stop-color="#312DFF" stop-opacity="0.72"/>
</linearGradient>
</defs>
</svg>
