<svg width="52" height="52" viewBox="0 0 52 52" fill="none" xmlns="http://www.w3.org/2000/svg">
<path fill-rule="evenodd" clip-rule="evenodd" d="M18.8988 14.9145L41.6302 1.28373C41.9268 1.10584 42.2944 1.0939 42.6019 1.25214L50.458 5.29394C51.172 5.66125 51.1838 6.67776 50.4785 7.06153L26.5248 20.0962C26.2328 20.2551 25.8809 20.2585 25.5859 20.1052L18.9522 16.6595C18.2579 16.2989 18.2279 15.3168 18.8988 14.9145ZM25.5464 24.4627V33.9243C25.5464 34.6878 24.7253 35.1697 24.0587 34.7973L1.51233 22.203C1.196 22.0263 1 21.6923 1 21.33V11.8683C1 11.1048 1.8211 10.623 2.48767 10.9953L25.034 23.5897C25.3504 23.7664 25.5464 24.1004 25.5464 24.4627ZM6.61395 28.414L13.8188 32.8336C14.1153 33.0154 14.296 33.3382 14.296 33.686V50.1387C14.296 50.9204 13.4394 51.3999 12.7731 50.9912L5.56818 46.5715C5.27174 46.3897 5.09106 46.0669 5.09106 45.7191V29.2664C5.09106 28.4847 5.94764 28.0053 6.61395 28.414ZM37.239 17.4019L43.4212 13.248C44.0855 12.8017 44.9789 13.2777 44.9789 14.0781V40.718C44.9789 41.0826 44.7805 41.4182 44.4612 41.594L38.2791 44.9978C37.6126 45.3647 36.7968 44.8826 36.7968 44.1218V18.2319C36.7968 17.8989 36.9626 17.5877 37.239 17.4019Z" fill="white"/>
<path d="M41.6302 1.28373L41.3731 0.854916L41.3731 0.854917L41.6302 1.28373ZM18.8988 14.9145L19.156 15.3433L19.156 15.3433L18.8988 14.9145ZM42.6019 1.25214L42.8307 0.807531L42.8307 0.807531L42.6019 1.25214ZM50.458 5.29394L50.2293 5.73855L50.2293 5.73855L50.458 5.29394ZM50.4785 7.06153L50.7175 7.50072L50.7175 7.50072L50.4785 7.06153ZM26.5248 20.0962L26.7638 20.5354L26.7638 20.5354L26.5248 20.0962ZM25.5859 20.1052L25.3554 20.5489L25.3554 20.5489L25.5859 20.1052ZM18.9522 16.6595L19.1826 16.2158L19.1826 16.2158L18.9522 16.6595ZM24.0587 34.7973L24.3025 34.3608L24.3025 34.3608L24.0587 34.7973ZM1.51233 22.203L1.2685 22.6396L1.2685 22.6396L1.51233 22.203ZM2.48767 10.9953L2.24384 11.4318L2.24384 11.4318L2.48767 10.9953ZM25.034 23.5897L25.2779 23.1532L25.2779 23.1532L25.034 23.5897ZM13.8188 32.8336L14.0803 32.4074L14.0803 32.4074L13.8188 32.8336ZM6.61395 28.414L6.87539 27.9878L6.87539 27.9878L6.61395 28.414ZM12.7731 50.9912L13.0345 50.5649L13.0345 50.5649L12.7731 50.9912ZM5.56818 46.5715L5.82962 46.1453L5.82962 46.1453L5.56818 46.5715ZM43.4212 13.248L43.7 13.663L43.7 13.663L43.4212 13.248ZM37.239 17.4019L37.5179 17.8169L37.5179 17.8169L37.239 17.4019ZM44.4612 41.594L44.22 41.156L44.22 41.156L44.4612 41.594ZM38.2791 44.9978L38.0379 44.5598L38.0379 44.5598L38.2791 44.9978ZM41.3731 0.854917L18.6417 14.4856L19.156 15.3433L41.8873 1.71254L41.3731 0.854917ZM42.8307 0.807531C42.3693 0.570165 41.818 0.588086 41.3731 0.854916L41.8873 1.71255C42.0357 1.6236 42.2194 1.61763 42.3732 1.69675L42.8307 0.807531ZM50.6868 4.84933L42.8307 0.807531L42.3732 1.69675L50.2293 5.73855L50.6868 4.84933ZM50.7175 7.50072C51.7754 6.92506 51.7577 5.4003 50.6868 4.84933L50.2293 5.73855C50.5863 5.92221 50.5922 6.43046 50.2395 6.62234L50.7175 7.50072ZM26.7638 20.5354L50.7175 7.50072L50.2395 6.62234L26.2858 19.657L26.7638 20.5354ZM25.3554 20.5489C25.7979 20.7788 26.3258 20.7737 26.7638 20.5354L26.2858 19.657C26.1398 19.7364 25.9638 19.7381 25.8163 19.6615L25.3554 20.5489ZM18.7217 17.1032L25.3554 20.5489L25.8163 19.6615L19.1826 16.2158L18.7217 17.1032ZM18.6417 14.4856C17.6353 15.0891 17.6804 16.5623 18.7217 17.1032L19.1826 16.2158C18.8355 16.0355 18.8205 15.5444 19.156 15.3433L18.6417 14.4856ZM26.0464 33.9243V24.4627H25.0464V33.9243H26.0464ZM23.8149 35.2338C24.8147 35.7924 26.0464 35.0696 26.0464 33.9243H25.0464C25.0464 34.3061 24.6358 34.547 24.3025 34.3608L23.8149 35.2338ZM1.2685 22.6396L23.8149 35.2338L24.3025 34.3608L1.75617 21.7665L1.2685 22.6396ZM0.5 21.33C0.5 21.8735 0.794003 22.3745 1.2685 22.6396L1.75617 21.7665C1.598 21.6782 1.5 21.5112 1.5 21.33H0.5ZM0.5 11.8683V21.33H1.5V11.8683H0.5ZM2.73151 10.5588C1.73166 10.0003 0.5 10.7231 0.5 11.8683H1.5C1.5 11.4866 1.91055 11.2456 2.24384 11.4318L2.73151 10.5588ZM25.2779 23.1532L2.73151 10.5588L2.24384 11.4318L24.7902 24.0262L25.2779 23.1532ZM26.0464 24.4627C26.0464 23.9192 25.7524 23.4182 25.2779 23.1532L24.7902 24.0262C24.9484 24.1145 25.0464 24.2815 25.0464 24.4627H26.0464ZM14.0803 32.4074L6.87539 27.9878L6.35251 28.8402L13.5574 33.2598L14.0803 32.4074ZM14.796 33.686C14.796 33.1644 14.5249 32.6802 14.0803 32.4074L13.5574 33.2598C13.7056 33.3507 13.796 33.5121 13.796 33.686H14.796ZM14.796 50.1387V33.686H13.796V50.1387H14.796ZM12.5116 51.4174C13.5111 52.0304 14.796 51.3113 14.796 50.1387H13.796C13.796 50.5296 13.3677 50.7693 13.0345 50.5649L12.5116 51.4174ZM5.30674 46.9977L12.5116 51.4174L13.0345 50.5649L5.82962 46.1453L5.30674 46.9977ZM4.59106 45.7191C4.59106 46.2408 4.86208 46.725 5.30674 46.9977L5.82962 46.1453C5.6814 46.0544 5.59106 45.893 5.59106 45.7191H4.59106ZM4.59106 29.2664V45.7191H5.59106V29.2664H4.59106ZM6.87539 27.9878C5.87592 27.3747 4.59106 28.0939 4.59106 29.2664H5.59106C5.59106 28.8756 6.01935 28.6358 6.35251 28.8402L6.87539 27.9878ZM43.1423 12.833L36.9602 16.9869L37.5179 17.8169L43.7 13.663L43.1423 12.833ZM45.4789 14.0781C45.4789 12.8775 44.1388 12.1635 43.1423 12.833L43.7 13.663C44.0322 13.4399 44.4789 13.6779 44.4789 14.0781H45.4789ZM45.4789 40.718V14.0781H44.4789V40.718H45.4789ZM44.7023 42.032C45.1813 41.7683 45.4789 41.2648 45.4789 40.718H44.4789C44.4789 40.9003 44.3797 41.0681 44.22 41.156L44.7023 42.032ZM38.5202 45.4358L44.7023 42.032L44.22 41.156L38.0379 44.5598L38.5202 45.4358ZM36.2968 44.1218C36.2968 45.263 37.5205 45.9862 38.5202 45.4358L38.0379 44.5598C37.7047 44.7432 37.2968 44.5022 37.2968 44.1218H36.2968ZM36.2968 18.2319V44.1218H37.2968V18.2319H36.2968ZM36.9602 16.9869C36.5455 17.2655 36.2968 17.7323 36.2968 18.2319H37.2968C37.2968 18.0654 37.3797 17.9098 37.5179 17.8169L36.9602 16.9869Z" fill="white"/>
</svg>
