<svg width="30" height="30" viewBox="0 0 30 30" fill="none" xmlns="http://www.w3.org/2000/svg">
<path fill-rule="evenodd" clip-rule="evenodd" d="M29.7071 1.70711C30.0976 1.31658 30.0976 0.683418 29.7071 0.292893C29.3166 -0.0976309 28.6834 -0.0976309 28.2929 0.292893L15 13.5858L1.7071 0.292893C1.31657 -0.0976309 0.68341 -0.0976309 0.292886 0.292893C-0.0976387 0.683418 -0.0976387 1.31658 0.292886 1.70711L13.5858 15L0.292886 28.2929C-0.0976387 28.6834 -0.0976387 29.3166 0.292886 29.7071C0.68341 30.0976 1.31657 30.0976 1.7071 29.7071L15 16.4142L28.2929 29.7071C28.6834 30.0976 29.3166 30.0976 29.7071 29.7071C30.0976 29.3166 30.0976 28.6834 29.7071 28.2929L16.4142 15L29.7071 1.70711Z" fill="white"/>
</svg>
